<mxfile host="app.diagrams.net" modified="2021-12-22T09:13:43.267Z" agent="5.0 (Macintosh; Intel Mac OS X 10_15_7) AppleWebKit/537.36 (KHTML, like Gecko) Chrome/96.0.4664.110 Safari/537.36" etag="DW-Ybl_HiL_RcPERNbnE" version="16.0.0" type="github">
  <diagram id="C5RBs43oDa-KdzZeNtuy" name="Page-1">
    <mxGraphModel dx="886" dy="589" grid="1" gridSize="10" guides="1" tooltips="1" connect="1" arrows="1" fold="1" page="1" pageScale="1" pageWidth="827" pageHeight="1169" math="0" shadow="0">
      <root>
        <mxCell id="WIyWlLk6GJQsqaUBKTNV-0" />
        <mxCell id="WIyWlLk6GJQsqaUBKTNV-1" parent="WIyWlLk6GJQsqaUBKTNV-0" />
        <mxCell id="vEJ-s2VONsh5BIXU16qY-1" value="" style="edgeStyle=orthogonalEdgeStyle;rounded=0;orthogonalLoop=1;jettySize=auto;html=1;" edge="1" parent="WIyWlLk6GJQsqaUBKTNV-1" source="WIyWlLk6GJQsqaUBKTNV-3" target="vEJ-s2VONsh5BIXU16qY-0">
          <mxGeometry relative="1" as="geometry" />
        </mxCell>
        <mxCell id="WIyWlLk6GJQsqaUBKTNV-3" value="前端请求创建广告计划" style="rounded=1;whiteSpace=wrap;html=1;fontSize=12;glass=0;strokeWidth=1;shadow=0;" parent="WIyWlLk6GJQsqaUBKTNV-1" vertex="1">
          <mxGeometry x="160" y="80" width="140" height="40" as="geometry" />
        </mxCell>
        <mxCell id="vEJ-s2VONsh5BIXU16qY-3" value="" style="edgeStyle=orthogonalEdgeStyle;rounded=0;orthogonalLoop=1;jettySize=auto;html=1;" edge="1" parent="WIyWlLk6GJQsqaUBKTNV-1" source="vEJ-s2VONsh5BIXU16qY-0" target="vEJ-s2VONsh5BIXU16qY-2">
          <mxGeometry relative="1" as="geometry" />
        </mxCell>
        <mxCell id="vEJ-s2VONsh5BIXU16qY-0" value="校验广告计划名词是否重复" style="whiteSpace=wrap;html=1;rounded=1;glass=0;strokeWidth=1;shadow=0;" vertex="1" parent="WIyWlLk6GJQsqaUBKTNV-1">
          <mxGeometry x="155" y="160" width="150" height="50" as="geometry" />
        </mxCell>
        <mxCell id="vEJ-s2VONsh5BIXU16qY-5" value="" style="edgeStyle=orthogonalEdgeStyle;rounded=0;orthogonalLoop=1;jettySize=auto;html=1;" edge="1" parent="WIyWlLk6GJQsqaUBKTNV-1" source="vEJ-s2VONsh5BIXU16qY-2" target="vEJ-s2VONsh5BIXU16qY-4">
          <mxGeometry relative="1" as="geometry" />
        </mxCell>
        <mxCell id="vEJ-s2VONsh5BIXU16qY-7" value="新增" style="edgeLabel;html=1;align=center;verticalAlign=middle;resizable=0;points=[];" vertex="1" connectable="0" parent="vEJ-s2VONsh5BIXU16qY-5">
          <mxGeometry x="-0.1" y="-2" relative="1" as="geometry">
            <mxPoint as="offset" />
          </mxGeometry>
        </mxCell>
        <mxCell id="vEJ-s2VONsh5BIXU16qY-9" value="" style="edgeStyle=orthogonalEdgeStyle;rounded=0;orthogonalLoop=1;jettySize=auto;html=1;" edge="1" parent="WIyWlLk6GJQsqaUBKTNV-1" source="vEJ-s2VONsh5BIXU16qY-2" target="vEJ-s2VONsh5BIXU16qY-8">
          <mxGeometry relative="1" as="geometry" />
        </mxCell>
        <mxCell id="vEJ-s2VONsh5BIXU16qY-10" value="修改" style="edgeLabel;html=1;align=center;verticalAlign=middle;resizable=0;points=[];" vertex="1" connectable="0" parent="vEJ-s2VONsh5BIXU16qY-9">
          <mxGeometry x="-0.2444" y="-1" relative="1" as="geometry">
            <mxPoint as="offset" />
          </mxGeometry>
        </mxCell>
        <mxCell id="vEJ-s2VONsh5BIXU16qY-2" value="是否新增/修改" style="rhombus;whiteSpace=wrap;html=1;rounded=1;glass=0;strokeWidth=1;shadow=0;" vertex="1" parent="WIyWlLk6GJQsqaUBKTNV-1">
          <mxGeometry x="190" y="275" width="80" height="80" as="geometry" />
        </mxCell>
        <mxCell id="vEJ-s2VONsh5BIXU16qY-4" value="&lt;span&gt;插入广告计划表数据&lt;/span&gt;&lt;span style=&quot;background-color: rgb(255 , 255 , 255) ; font-family: &amp;#34;jetbrains mono&amp;#34; , monospace ; font-size: 9.8pt&quot;&gt;dsp_campaigns&lt;/span&gt;" style="whiteSpace=wrap;html=1;rounded=1;glass=0;strokeWidth=1;shadow=0;" vertex="1" parent="WIyWlLk6GJQsqaUBKTNV-1">
          <mxGeometry x="330" y="285" width="120" height="60" as="geometry" />
        </mxCell>
        <mxCell id="vEJ-s2VONsh5BIXU16qY-8" value="更新广告计划表数据&lt;span style=&quot;background-color: rgb(255 , 255 , 255) ; font-family: &amp;#34;jetbrains mono&amp;#34; , monospace ; font-size: 9.8pt&quot;&gt;dsp_campaigns&lt;/span&gt;" style="whiteSpace=wrap;html=1;rounded=1;glass=0;strokeWidth=1;shadow=0;" vertex="1" parent="WIyWlLk6GJQsqaUBKTNV-1">
          <mxGeometry x="170" y="410" width="120" height="60" as="geometry" />
        </mxCell>
      </root>
    </mxGraphModel>
  </diagram>
</mxfile>
